<svg id="レイヤー_1" data-name="レイヤー 1" xmlns="http://www.w3.org/2000/svg" viewBox="0 0 290.00159 44.11319"><defs><style>.cls-1{fill:#72716b;stroke:#72716b;stroke-miterlimit:10;stroke-width:0.5px;}</style></defs><path class="cls-1" d="M252.29,305.9624a12.992,12.992,0,0,0,8.33545-8.37744c.168-.56689.105-1.0918-.67188-1.11279-2.05761-.063-5.375.063-8.39843.168a1.04026,1.04026,0,1,1-.042-2.07862c2.77149-.126,6.69776-.147,9.36426-.105,1.70068.021,2.89746,1.30176,2.28858,3.02344-1.46973,4.19922-4.03125,8.27246-9.91016,10.519C251.47119,308.6709,250.69434,306.46631,252.29,305.9624Zm12.47168-11.02295a2.21511,2.21511,0,0,1,0-4.43017,2.21511,2.21511,0,1,1,0,4.43017Zm0-3.29638a1.09353,1.09353,0,0,0-1.0708,1.09179,1.071,1.071,0,0,0,2.1416,0A1.09353,1.09353,0,0,0,264.76172,291.64307Z" transform="translate(-250.20434 -289.85236)"/><path class="cls-1" d="M281.14258,306.46631c-2.60352.084-4.05225.063-6.08887,0-2.1416-.084-3.2124-1.17578-3.27539-2.93945-.063-2.07862-.063-3.59034,0-5.396.063-1.55371,1.00781-2.79248,3.2124-2.89746,2.35157-.105,4.3042-.063,6.34082,0a2.9494,2.9494,0,0,1,2.98145,2.6665c.063,1.91065.063,3.7793,0,5.585A2.95315,2.95315,0,0,1,281.14258,306.46631Zm.96582-7.85254a1.392,1.392,0,0,0-1.55371-1.46973c-1.80567-.063-3.46436-.063-5.10205,0-1.17578.042-1.53272.62989-1.57471,1.49073a38.97763,38.97763,0,0,0,0,4.43017c.042.92383.46191,1.32276,1.6167,1.36475,1.91064.063,3.17041.105,5.08105,0a1.41987,1.41987,0,0,0,1.51172-1.40674C282.15039,301.63721,282.17139,300.02051,282.1084,298.61377Z" transform="translate(-250.20434 -289.85236)"/><path class="cls-1" d="M299.98,294.43555c.90283-.063,1.93164-.126,2.77148-.168,1.6167-.084,3.02344,1.0498,2.24659,2.54053-2.56153,4.89209-5.459,9.1333-11.35889,11.46386-1.78467.69287-2.64551-1.36474-.90283-1.97363,4.66113-1.6167,8.12549-5.79492,9.6792-9.36426.168-.39892,0-.79785-.50391-.77685-.88183.021-2.41455.168-3.35937.27295a25.45773,25.45773,0,0,1-4.72413,5.08105c-1.40673.94482-2.6455-.88184-1.21777-1.76367,2.01563-1.23877,4.74512-5.08106,5.71094-6.73975.69287-1.17578,2.79248-.168,1.80566,1.23877Zm4.40918-1.1128c-1.0708-.44091-.231-1.70068.73486-1.34375a6.49464,6.49464,0,0,1,2.07862,1.25977c.81884.88184-.39893,2.1626-1.0918,1.34375A7.42364,7.42364,0,0,0,304.38916,293.32275Zm1.91064-1.80566c-1.0708-.41992-.31494-1.67969.67188-1.36475a6.70132,6.70132,0,0,1,2.12061,1.19678c.83984.83984-.35694,2.1626-1.07081,1.36475A7.64511,7.64511,0,0,0,306.2998,291.51709Z" transform="translate(-250.20434 -289.85236)"/><path class="cls-1" d="M316.78076,308.083c-1.72168.5249-2.49853-1.55371-.81885-1.99463,4.13623-1.11279,6.80274-3.65332,7.74756-6.31983.21-.56689.105-.90283-.69287-.92382-2.1416-.042-6.04687.021-8.29346.105a1.001,1.001,0,1,1-.063-1.97364c2.70849-.063,6.23584-.084,9.0913-.063,2.09961.021,3.12842,1.19677,2.26758,3.25439C324.54932,303.67383,321.98779,306.4873,316.78076,308.083Zm6.67676-13.10156c-1.97363,0-4.87109.063-7.13867,0-1.38574-.042-1.46973-1.97364.147-1.95264,2.01563.021,4.95508.021,7.07568,0a1.025,1.025,0,0,1,1.13379.96582C324.67529,294.49854,324.31836,294.98145,323.45752,294.98145Z" transform="translate(-250.20434 -289.85236)"/><path class="cls-1" d="M343.78564,307.894a15.738,15.738,0,0,0-3.35937-2.07861c-1.0708-.50391-2.07861-.86084-2.96045-1.19678-1.28076-.48291-.71387-2.43554.94482-1.97363a21.52739,21.52739,0,0,1,6.88672,3.17041,1.42025,1.42025,0,0,1,.21,1.91064A1.17413,1.17413,0,0,1,343.78564,307.894Zm-2.03662-6.9917a10.75921,10.75921,0,0,0-3.48535-1.28076c-1.63769-.31494-.92383-2.24658.44092-2.03662a15.19638,15.19638,0,0,1,4.13623,1.30176,1.21006,1.21006,0,0,1,.5249,1.65869A1.08252,1.08252,0,0,1,341.749,300.90234Zm1.34375-4.57714a16.167,16.167,0,0,0-4.8291-1.46973c-1.46972-.189-.90283-2.22559.75586-1.97363a16.59191,16.59191,0,0,1,4.87109,1.30175,1.27391,1.27391,0,0,1,.73487,1.6587A1.05837,1.05837,0,0,1,343.09277,296.3252Z" transform="translate(-250.20434 -289.85236)"/><path class="cls-1" d="M359.28467,298.80273a7.75,7.75,0,0,0-3.10742-1.55371c-1.25977-.29394-.73487-2.41455.86084-1.97363a13.31614,13.31614,0,0,1,3.69531,1.5957,1.24134,1.24134,0,0,1,.27295,1.74268A1.112,1.112,0,0,1,359.28467,298.80273Zm-1.30176,8.67139a1.20137,1.20137,0,1,1-.71387-2.26758c4.22022-1.0708,8.46143-5.417,10.582-9.53222a1.14455,1.14455,0,1,1,1.91065,1.23877C367.1582,301.63721,362.812,305.94141,357.98291,307.47412Z" transform="translate(-250.20434 -289.85236)"/><path class="cls-1" d="M383.98,294.43555c.90283-.063,1.93164-.126,2.77148-.168,1.6167-.084,3.02344,1.0498,2.24659,2.54053-2.56153,4.89209-5.459,9.1333-11.35889,11.46386-1.78467.69287-2.64551-1.36474-.90283-1.97363,4.66113-1.6167,8.12549-5.79492,9.6792-9.36426.168-.39892,0-.79785-.50391-.77685-.88183.021-2.41455.168-3.35937.27295a25.45773,25.45773,0,0,1-4.72413,5.08105c-1.40673.94482-2.6455-.88184-1.21777-1.76367,2.01563-1.23877,4.74512-5.08106,5.71094-6.73975.69287-1.17578,2.79248-.168,1.80566,1.23877Zm4.40918-1.1128c-1.0708-.44091-.231-1.70068.73486-1.34375a6.49464,6.49464,0,0,1,2.07862,1.25977c.81884.88184-.39893,2.1626-1.0918,1.34375A7.42364,7.42364,0,0,0,388.38916,293.32275Zm1.91064-1.80566c-1.0708-.41992-.31494-1.67969.67188-1.36475a6.70132,6.70132,0,0,1,2.12061,1.19678c.83984.83984-.35694,2.1626-1.07081,1.36475A7.64511,7.64511,0,0,0,390.2998,291.51709Z" transform="translate(-250.20434 -289.85236)"/><path class="cls-1" d="M399.94092,294.51953c-1.0918-1.34375.96582-2.47754,1.80566-1.28076a21.31127,21.31127,0,0,1,2.45654,4.89209,40.05215,40.05215,0,0,1,3.69532-2.30957c1.42773-.79785,2.51953,1.21777.90283,2.03662a31.55881,31.55881,0,0,0-5.96289,3.71631c-2.07861,1.76367-2.1416,3.33838-.50391,4.13623,1.46973.73486,4.47217.189,5.73194-.27295,1.76367-.67188,2.39355,1.74268.5249,2.26758-1.65869.46191-5.165.88183-7.24365-.168-3.02344-1.53272-2.89746-4.93408.5039-7.64258.21-.168.39893-.33594.60889-.48291A17.07426,17.07426,0,0,0,399.94092,294.51953Z" transform="translate(-250.20434 -289.85236)"/><path class="cls-1" d="M424.04834,304.63965c.126,3.00244,3.40137,2.87646,4.49316.5459.73487-1.57471.147-2.96045-1.0288-4.24121-1.0918-1.19678.71386-2.30957,1.63769-1.23877,1.6377,1.88964,2.22559,3.88427,1.42773,6.00488-1.51171,3.98926-8.20947,4.68213-8.37744-.92383-.021-.58789-.021-1.21777.021-1.86865a11.44381,11.44381,0,0,1-1.6167-.252c-1.70068-.46192-1.0498-2.45655.147-2.05762a7.35777,7.35777,0,0,0,1.6167.31494c.084-.92383.189-1.84766.29395-2.79248a9.56574,9.56574,0,0,1-1.74268-.35693c-1.5957-.5459-.67187-2.47754.44092-2.01563a5.93423,5.93423,0,0,0,1.51172.39893c.021-.252.063-.52491.084-.77686.126-1.32275.168-2.1206.231-3.10742.105-1.46973,2.09961-1.13379,2.09961.105a26.44511,26.44511,0,0,1-.35693,3.02344c-.021.252-.063.5039-.084.75586a3.86939,3.86939,0,0,0,.5249-.105.98562.98562,0,1,1,.48291,1.91064,6.52361,6.52361,0,0,1-1.28076.21c-.126.94483-.231,1.84766-.31494,2.72949a7.15589,7.15589,0,0,0,1.00781-.189,1.0031,1.0031,0,1,1,.67188,1.88965,7.55911,7.55911,0,0,1-1.86865.33593A15.553,15.553,0,0,0,424.04834,304.63965Z" transform="translate(-250.20434 -289.85236)"/><path class="cls-1" d="M447.37891,296.87109a16.53751,16.53751,0,0,1-4.24121,8.50342c-1.6167,1.49072-3.38038.67188-4.3042-1.13379-1.32276-2.60351.084-6.50879,2.89746-8.46142a8.7719,8.7719,0,0,1,9.07031-.48291,6.21408,6.21408,0,0,1,1.95264,8.81836,8.77739,8.77739,0,0,1-5.12305,3.46435c-1.84766.48291-2.49854-1.63769-.69287-2.05762a6.50487,6.50487,0,0,0,3.90527-2.35156,4.53174,4.53174,0,0,0-1.15478-6.4248,5.44585,5.44585,0,0,0-2.60352-.83985A1.05021,1.05021,0,0,1,447.37891,296.87109Zm-4.66114.39893c-1.95263,1.51172-3.00244,4.3042-2.1206,5.9209.31494.60888.86084.92383,1.38574.46191a12.61438,12.61438,0,0,0,3.25439-6.9917,1.48514,1.48514,0,0,1,.189-.65088A6.95717,6.95717,0,0,0,442.71777,297.27Z" transform="translate(-250.20434 -289.85236)"/><path class="cls-1" d="M465.77539,307.51611c-1.95264.31494-2.09961-1.99463-.41992-2.22558a11.28839,11.28839,0,0,0,6.17285-2.45655c1.78467-1.5747,1.91064-3.29638.94482-4.40918-1.34375-1.53271-3.7163-1.49072-5.606-.92382a20.406,20.406,0,0,0-3.00244,1.23877c-.94483.46191-1.88965.94482-2.91846,1.42773a1.18,1.18,0,1,1-1.02881-2.09961,49.50562,49.50562,0,0,1,6.57178-2.45654c2.39355-.60889,5.585-.58789,7.5166,1.42773,2.26758,2.37256,1.42773,5.375-1.15479,7.5166A14.58856,14.58856,0,0,1,465.77539,307.51611Zm6.13086-13.52148c-1.0708-.44092-.231-1.72168.73486-1.36475a6.56265,6.56265,0,0,1,2.07862,1.28076c.81884.88184-.39893,2.14161-1.0918,1.32276A7.34734,7.34734,0,0,0,471.90625,293.99463Zm1.91064-1.80567c-1.0708-.41992-.31494-1.70068.67188-1.38574a6.77023,6.77023,0,0,1,2.12061,1.21778c.83984.83984-.33594,2.1416-1.04981,1.34375A7.69613,7.69613,0,0,0,473.81689,292.189Z" transform="translate(-250.20434 -289.85236)"/><path class="cls-1" d="M489.35791,308.125a38.72149,38.72149,0,0,0-4.45117-6.82373c-1.38574-1.6167-1.38574-3.10742.25195-4.80811a51.58148,51.58148,0,0,0,4.3042-4.74511,1.1759,1.1759,0,1,1,1.86865,1.42773c-1.0498,1.28076-3.27539,3.10742-4.57715,4.40918-.90283.90283-.94482,1.53272-.252,2.39356,2.09961,2.62451,3.88428,4.59814,4.91309,6.84472C492.06641,308.23,490.02979,309.46875,489.35791,308.125Z" transform="translate(-250.20434 -289.85236)"/><path class="cls-1" d="M507.46045,307.13818a9.6696,9.6696,0,0,0,3.65332-11.04394c-.69287-2.09961-2.6875-1.32276-3.29639-.021a6.94422,6.94422,0,0,0-.5459,3.96826c.105,2.03662-2.16259,2.01563-2.28857.50391a18.67372,18.67372,0,0,1,.48291-4.8501c.231-1.0708.62988-2.45654.79785-3.7373a1.05735,1.05735,0,0,1,2.09961.189,6.2971,6.2971,0,0,1-.5459,1.95264c-.273.56689-.063.29394.147.021,1.53271-1.97364,4.2622-1.1128,5.123,1.25976a11.466,11.466,0,0,1-4.15722,13.39551C507.22949,310.03564,505.69678,308.293,507.46045,307.13818Z" transform="translate(-250.20434 -289.85236)"/><path class="cls-1" d="M528.12451,298.06787a7.25586,7.25586,0,0,1,.67188-1.0918c.33593-.44091.231-.41992-.168-.29394-1.57471.50391-1.21778.50391-2.64551,1.0498a19.917,19.917,0,0,1-1.88965.62989c-1.84765.5039-2.41455-1.91065-.73486-2.26758.44092-.105,1.65869-.33594,2.33056-.50391,1.02881-.252,2.87647-.67187,5.01807-1.28076a28.093,28.093,0,0,1,5.71094-1.23877,1.23814,1.23814,0,0,1,1.42773,1.6167c-.126.35693-.58789.77686-2.05761.69287a8.9,8.9,0,0,0-3.10743.58789,6.11,6.11,0,0,0-2.70849,2.45654c-1.84766,3.08643-.44092,7.49561,4.26221,7.32764,2.20458-.084,2.35156,2.39356.126,2.37256C528.01953,308.104,525.83594,302.28809,528.12451,298.06787Zm6.4668,1.38574c-1.11279-.48291-.273-1.78466.75586-1.40673a6.85663,6.85663,0,0,1,2.20459,1.32275c.86084.92383-.44092,2.26758-1.17578,1.40674A8.03872,8.03872,0,0,0,534.59131,299.45361Zm2.1206-1.82666c-1.13379-.44091-.31494-1.78466.71387-1.44873a6.96633,6.96633,0,0,1,2.22559,1.25977c.88183.88183-.35694,2.26758-1.1128,1.42773A7.37143,7.37143,0,0,0,536.71191,297.627Z" transform="translate(-250.20434 -289.85236)"/><path class="cls-1" d="M304.16016,333.167a1.42642,1.42642,0,0,1-1.97364-.189,1.0746,1.0746,0,0,1,.5669-1.6377,8.02344,8.02344,0,0,0,4.40918-8.25146,1.07441,1.07441,0,0,1,1.15478-1.28076,1.1183,1.1183,0,0,1,1.25977,1.19677c0,.252,0,.52491-.021.77686.063-.021.105-.063.168-.084a9.13643,9.13643,0,0,0,3.82129-2.6455c.31494-.44092.31494-.75586-.231-.75586-2.35156-.021-6.92871.042-9.86816.189-1.84766.084-1.74268-1.93164-.168-2.01562,3.04443-.147,7.62158-.126,10.771-.126,2.18359,0,3.1914,1.82666,1.72168,3.48535a12.2069,12.2069,0,0,1-5.207,3.73731,1.36213,1.36213,0,0,1-1.19677-.063A10.58437,10.58437,0,0,1,304.16016,333.167Z" transform="translate(-250.20434 -289.85236)"/><path class="cls-1" d="M324.69824,329.19873c-1.93164,1.17578-3.02344-.96582-1.5957-1.65869a27.892,27.892,0,0,0,10.24609-9.49024,1.09388,1.09388,0,1,1,1.86866,1.1128c-.94483,1.25976-1.84766,2.39355-2.75049,3.44336-.063,2.1416-.105,7.64258-.042,9.74218a1.11077,1.11077,0,1,1-2.20459.063c.021-1.67968.105-5.10205.126-7.55859A30.69459,30.69459,0,0,1,324.69824,329.19873Z" transform="translate(-250.20434 -289.85236)"/><path class="cls-1" d="M346.72705,333.062c-2.05762.71387-2.39355-1.53271-.92383-1.93164a6.90071,6.90071,0,0,0,5.333-6.59277c-2.33057.021-4.64014.084-6.10986.126a.9607.9607,0,0,1-1.0918-.94482,1.06634,1.06634,0,0,1,1.19678-1.02881c2.98144-.042,9.59521-.084,13.01758-.105a.92916.92916,0,0,1,1.0288,1.00781,1.03025,1.03025,0,0,1-1.15478.94483c-1.13379-.042-2.85547-.042-4.70313-.021A9.32905,9.32905,0,0,1,346.72705,333.062Zm.75586-12.61865a.99838.99838,0,1,1,.021-1.97363c2.6455.021,4.51416-.063,7.26464-.126a.95631.95631,0,0,1,1.07081.96582.97571.97571,0,0,1-.98682,1.00781C351.95508,320.35938,349.72949,320.44336,347.48291,320.44336Zm10.498.46191a7.14331,7.14331,0,0,0-1.40674-1.5747c-.94483-.67188.105-1.70069.98682-1.15479a6.73732,6.73732,0,0,1,1.78466,1.67969C359.97559,320.88428,358.48486,321.8501,357.981,320.90527Zm2.60351-1.28076a14.41371,14.41371,0,0,0-1.46972-1.51172c-.96582-.62988.042-1.72168.94482-1.19677a6.93885,6.93885,0,0,1,1.82666,1.61669A.8495.8495,0,0,1,360.58447,319.62451Z" transform="translate(-250.20434 -289.85236)"/><path class="cls-1" d="M367.16016,333.167a1.42642,1.42642,0,0,1-1.97364-.189,1.0746,1.0746,0,0,1,.5669-1.6377,8.02344,8.02344,0,0,0,4.40918-8.25146,1.07441,1.07441,0,0,1,1.15478-1.28076,1.1183,1.1183,0,0,1,1.25977,1.19677c0,.252,0,.52491-.021.77686.063-.021.105-.063.168-.084a9.13643,9.13643,0,0,0,3.82129-2.6455c.31494-.44092.31494-.75586-.231-.75586-2.35156-.021-6.92871.042-9.86816.189-1.84766.084-1.74268-1.93164-.168-2.01562,3.04443-.147,7.62158-.126,10.771-.126,2.18359,0,3.1914,1.82666,1.72168,3.48535a12.2069,12.2069,0,0,1-5.207,3.73731,1.36213,1.36213,0,0,1-1.19677-.063A10.58437,10.58437,0,0,1,367.16016,333.167Z" transform="translate(-250.20434 -289.85236)"/><path class="cls-1" d="M393.8501,318.49072a7.38262,7.38262,0,0,0,.88183-.37793c1.15479-.69287,2.28858,1.04981.73487,1.82666a11.80753,11.80753,0,0,1-2.30957.69287,21.42219,21.42219,0,0,1-1.00782,2.12061,3.05982,3.05982,0,0,1,3.52735,1.82666c.86084-.44092,1.74267-.88184,2.56152-1.23877a16.12257,16.12257,0,0,0,1.6377-.77686,1.11933,1.11933,0,1,1,1.17578,1.88965c-.67188.33594-1.15479.44092-2.26758.86084-.88184.33594-1.82666.75586-2.6665,1.15479a16.77736,16.77736,0,0,1,.042,2.30957,1.24143,1.24143,0,0,1-1.11279,1.30176c-.52491.021-1.00782-.37793-.94483-1.19678.021-.44092.042-.92383.042-1.36475-.189.105-.37793.21-.5459.31494-2.60351,1.67969-2.28857,2.93946-1.11279,3.52735,1.11279.56689,3.17041.147,4.15723-.168,1.84765-.5669,2.43554,1.70068.5039,2.20459-1.23877.31494-4.09423.62988-5.73193-.29395-2.83447-1.5957-2.33057-4.43017,1.46973-6.92871.29394-.189.62988-.41992,1.02881-.65088-.5669-1.76367-2.1836-1.55371-3.54834.021l-.084.084a4.59746,4.59746,0,0,1-.48291.5459c-1.15478,1.02881-2.6875-.168-1.42773-1.30175a10.47993,10.47993,0,0,0,1.70068-1.97364,17.505,17.505,0,0,0,.98682-1.86865,4.24064,4.24064,0,0,1-2.60352-.231c-1.51172-.75586-.48291-2.72949.98682-1.74267a3.22856,3.22856,0,0,0,1.97363.042c.084-.021.21-.021.31494-.042a8.75927,8.75927,0,0,0,.231-1.76367c.084-1.25977,2.05762-1.13379,2.09961-.105a3.96988,3.96988,0,0,1-.168,1.21778Z" transform="translate(-250.20434 -289.85236)"/><path class="cls-1" d="M414.17822,321.64014c1.76367-.147,3.10742.88183,3.19141,3.2334a12.50559,12.50559,0,0,1-.71387,4.68212,4.07012,4.07012,0,0,1-4.93408,2.51954c-1.65869-.48291-.98682-2.41456.29394-2.09961a2.00641,2.00641,0,0,0,2.66651-1.13379,9.37187,9.37187,0,0,0,.67187-3.63233c0-1.28076-.44091-1.88965-1.40673-1.80566-.315.021-.62989.063-.96582.105a30.93724,30.93724,0,0,1-4.07325,8.44043c-1.00781,1.42773-3.1914.21-1.82666-1.32276a20.25808,20.25808,0,0,0,3.71631-6.82373l-.25195.042a14.244,14.244,0,0,1-2.26758.29394,1.0088,1.0088,0,1,1-.063-2.01562c.65088-.063,1.30176-.042,2.05762-.105l1.0498-.105a22.41363,22.41363,0,0,0,.65088-3.33838c.147-1.36475,2.28858-1.23877,2.12061.168a27.66638,27.66638,0,0,1-.60889,2.96044Zm7.72657,4.72412a7.53893,7.53893,0,0,0-3.00245-3.61133c-1.0288-.56689-.105-2.1416,1.19678-1.38574a8.70417,8.70417,0,0,1,3.73731,3.98926C424.36133,326.74219,422.47168,327.666,421.90479,326.36426Z" transform="translate(-250.20434 -289.85236)"/><path class="cls-1" d="M430.41211,332.26416c-.62988,1.40674-2.85547.79785-1.97363-.98682a64.99133,64.99133,0,0,0,3.67431-9.1123,6.12333,6.12333,0,0,1-3.06543-.29395c-1.0708-.46191-.86084-2.37255.71387-1.80566a5.61209,5.61209,0,0,0,2.89746.126,9.15075,9.15075,0,0,0-.021-2.26758c-.084-1.19678,1.88964-1.25977,2.0996-.105a6.38889,6.38889,0,0,1,.021,1.67969c.29395-.147.5459-.29395.79785-.44092a1.00179,1.00179,0,1,1,.81885,1.80566,13.52147,13.52147,0,0,1-2.12061.83984A82.58779,82.58779,0,0,1,430.41211,332.26416Zm5.10205-.94482c-.90283-1.00782.39893-2.66651,1.49072-1.55372,1.0708,1.0918,2.35157.98682,4.80811.77686a1.09,1.09,0,1,1,.27295,2.1626C439.0415,333.314,436.438,332.34814,435.51416,331.31934Zm2.37256-7.32764c-1.0918.39892-1.74268-1.32275-.35693-1.80566a7.79316,7.79316,0,0,1,5.03906.105c1.40674.5039.83984,2.35156-.48291,1.91064A7.38327,7.38327,0,0,0,437.88672,323.9917Z" transform="translate(-250.20434 -289.85236)"/><path class="cls-1" d="M454.49854,326.28027a9.4303,9.4303,0,0,1,4.15722-1.80566c4.40918-.58789,6.40381,3.29639,3.7583,6.4458a9.2556,9.2556,0,0,1-5.64795,2.75049c-2.01562.27295-2.1206-1.82666-.5459-2.01563a7.08943,7.08943,0,0,0,4.36719-1.88965c1.53272-1.72167,1.17578-3.7163-1.67969-3.48535a6.28778,6.28778,0,0,0-3.69531,1.93164c-.37793.39893-.48291,1.00782-1.19678,1.19678-.92382.252-1.63769-.65088-1.49072-1.72168.168-1.19678.46192-3.33838.77686-5.396a7.862,7.862,0,0,1-1.97364-.063c-1.55371-.252-1.38574-2.37256.29395-1.99463a5.27322,5.27322,0,0,0,1.99463.021c.21-1.34375.41992-2.49853.56689-3.14941a1.039,1.039,0,1,1,2.01563.50391c-.147.48291-.294,1.17578-.46192,1.95263a8.70724,8.70724,0,0,0,1.1128-.67187c1.44873-1.02881,2.77148,1.0708.81885,1.97363a24.21837,24.21837,0,0,1-2.37256.98682C454.96045,323.69775,454.64551,325.54541,454.49854,326.28027Z" transform="translate(-250.20434 -289.85236)"/><path class="cls-1" d="M471.50928,332.28516c-1.67969-4.13623-.021-10.35108.35693-12.84961a1.02079,1.02079,0,1,1,2.03662.126c-.33594,1.70069-1.5957,6.63477-1.09179,8.58741.063.27295.147.21.231.021.042-.105.27295-.5249.35694-.67187a.8415.8415,0,0,1,1.46972.81884,10.58663,10.58663,0,0,0-1.23877,2.93946c-.126.56689.126,1.21777-.39892,1.67969S471.9292,333.314,471.50928,332.28516Zm5.627-1.49073a1.0394,1.0394,0,0,1,1.49072-1.44873c1.13379,1.02881,3.65332.69287,5.291.35694,1.70068-.35694,1.80566,1.86865.41992,2.22558C482.09131,332.49512,478.648,332.43213,477.13623,330.79443ZM478.333,322.417a.9886.9886,0,1,1-.29395-1.95263,12.67433,12.67433,0,0,1,5.522-.126,1.02729,1.02729,0,1,1-.35694,2.01562A10.63623,10.63623,0,0,0,478.333,322.417Z" transform="translate(-250.20434 -289.85236)"/></svg>