<svg id="レイヤー_1" data-name="レイヤー 1" xmlns="http://www.w3.org/2000/svg" viewBox="0 0 191.23145 55.229"><defs><style>.cls-1{fill:#dfb23c;}</style></defs><path class="cls-1" d="M340.27881,240.895c.43164-.72022.792-1.44043,1.2959-1.44043s.72021.86426.86425,1.29639c4.46436,14.041,8.42481,26.498,12.67286,39.53125,1.36816,4.17627,2.88037,6.55273,5.97656,7.70459,1.0083.35986,2.66406.35986,2.66406,1.728,0,.936-.57568.936-1.43994.936-1.80029,0-5.1123-.64795-7.70459-.64795-3.6001,0-8.56885.792-10.80078.792a.98418.98418,0,0,1-1.0083-1.00781c0-.72022.28808-.86426,2.08838-1.728a3.72706,3.72706,0,0,0,2.376-3.45654c0-1.87207-1.15185-5.40039-2.52-9.36084-.64843-1.80029-1.5122-2.44824-4.24853-2.44824H327.60547c-.936,0-2.23193,1.5122-2.59229,2.23242-1.43994,2.73633-3.24023,6.55224-3.24023,9.28857a4.02732,4.02732,0,0,0,2.66455,3.45655c2.08789.71972,4.53613.144,4.53613,1.87207,0,.792-.57617.936-1.36816.936-1.94434,0-5.54443-.35986-8.28076-.35986-2.59229,0-4.32032.35986-6.19239.35986-.792,0-1.36816-.21582-1.36816-1.0083,0-1.2959.86426-1.08008,2.3042-1.87207,1.94434-1.08008,2.95215-2.88037,5.68848-8.2085C326.59766,266.24121,335.74219,248.95947,340.27881,240.895ZM330.19775,269.3374h10.729c1.08008,0,1.94433-.57617,1.94433-1.22412a10.50045,10.50045,0,0,0-.50439-2.16016,116.93364,116.93364,0,0,0-4.248-12.09716c-.144-.35987-.50439-1.0083-.79248-1.0083-.5039,0-.86377.72021-1.22412,1.29638-.648,1.08008-4.17627,8.06446-5.1123,9.86475a21.88791,21.88791,0,0,0-1.94385,3.88818C329.0459,268.25732,329.3335,269.3374,330.19775,269.3374Z" transform="translate(-311.76416 -236.57422)"/><path class="cls-1" d="M373.90039,253.71191c.36035-2.73632,1.65625-10.29687,1.65625-11.73681,0-1.44043-.936-1.94434-2.52-1.94434l-1.94433.07178c-.72022,0-1.22413-.144-1.22413-.648,0-1.00781,1.0083-1.2959,2.23243-1.36816a54.86768,54.86768,0,0,0,7.70459-.86377,11.257,11.257,0,0,1,3.168-.64844c.72022,0,.72022.50439.72022,1.22412a41.65574,41.65574,0,0,1-.64795,4.24854c-1.728,11.30517-3.3125,22.25-3.3125,23.978,0,.50391,0,.936.28809.936s.72021-.64795.936-1.00782c2.59229-4.17675,6.19287-6.91259,10.80127-6.91259,5.54443,0,9.2168,4.53613,9.2168,10.87256,0,12.09716-9.43311,21.89013-21.09815,21.89013-6.19238,0-9.93652-3.3125-9.93652-8.35254C369.94043,279.20215,372.24463,266.24121,373.90039,253.71191Zm7.63281,36.147c6.40869,0,11.665-8.06446,11.665-18.00147,0-4.6084-2.23242-7.92041-5.76074-7.92041-3.02393,0-6.62451,3.81592-7.99268,7.70459-.792,2.16016-2.23193,12.457-2.23193,13.53711A4.5129,4.5129,0,0,0,381.5332,289.85889Z" transform="translate(-311.76416 -236.57422)"/><path class="cls-1" d="M436.46973,272.14551c0,10.873-7.12842,19.00976-16.77735,19.00976a12.85121,12.85121,0,0,1-12.60107-13.0332c0-9.43262,6.62451-19.29785,16.6333-19.29785C432.22168,258.82422,436.46973,264.585,436.46973,272.14551Zm-16.27344,17.06543c5.18457,0,8.71289-7.77686,8.71289-19.44141,0-3.74463-1.15186-8.9292-5.25635-8.9292-7.27246,0-8.353,13.75342-8.353,19.00977C415.2998,285.17871,416.38037,289.21094,420.19629,289.21094Z" transform="translate(-311.76416 -236.57422)"/><path class="cls-1" d="M465.19629,278.12207c0-.43213,0-.86426-.35986-.86426s-.72022.57617-.936,1.0083c-3.16846,5.97657-8.92871,12.88916-13.46533,12.88916-3.24024,0-4.39209-2.44824-4.39209-5.47265,0-5.11231,2.52-12.313,2.52-18.07373,0-1.51172-.50391-2.44776-1.65625-2.44776-2.376,0-3.24024,5.04-4.24805,5.04a.8173.8173,0,0,1-.79248-.86377c0-3.67236,5.04053-10.15283,10.729-10.15283,1.65625,0,3.60059,2.52,3.60059,6.4082,0,5.6167-2.44824,12.457-2.44824,17.64161,0,1.15234.35986,2.08837,1.7998,2.08837,1.94434,0,8.06494-7.27295,11.37744-18.07373.35987-1.22412,1.65577-5.83252,1.87208-6.69629.21582-.64843.35986-1.15234,1.36816-1.15234h4.104c.936,0,1.29639.21582,1.29639,1.0083,0,1.15186-.792,3.6001-1.08008,5.47217-.792,4.96875-2.80859,13.96924-2.80859,17.49756,0,1.0083.28808,2.23242,1.58447,2.23242,2.95215,0,3.38428-4.24854,4.46436-4.24854a.735.735,0,0,1,.71972.792c0,4.24853-6.4082,9.145-10.65674,9.145-2.73632,0-3.38427-2.52051-3.38427-5.97657C464.4043,283.01855,465.19629,279.77832,465.19629,278.12207Z" transform="translate(-311.76416 -236.57422)"/><path class="cls-1" d="M496.73145,250.6875c0,1.0083-1.36817,5.04053-1.36817,7.77686,0,.792.21582,1.08007,1.87207,1.08007,2.01611,0,3.45606-.144,4.10449-.144,1.22412,0,1.65577,0,1.65577.57617a3.46561,3.46561,0,0,1-.50391,1.728,1.381,1.381,0,0,1-1.2959.64795c-1.87256,0-4.17627-.144-5.32861-.144-.72022,0-1.2959.43212-1.43994,1.44043-.57618,3.60009-2.23243,14.47314-2.23243,17.20947,0,1.728.86426,3.45605,2.88038,3.45605,3.8164,0,4.96826-4.248,6.04834-4.248a.72112.72112,0,0,1,.72021.71972c0,2.73633-5.83252,10.36914-11.30518,10.36914-2.95214,0-5.32812-3.45654-5.32812-7.77685a105.50634,105.50634,0,0,1,1.7998-15.3374c.28809-1.728.72022-3.74414.72022-4.6084,0-.936-.86426-1.00782-2.23242-1.08008-1.65576-.07178-2.01612-.50391-2.01612-1.22412a1.11728,1.11728,0,0,1,.64844-1.08008c3.96-2.08789,6.84033-3.88818,9.36084-6.84033,1.51172-1.8003,2.16016-3.24024,2.87988-3.24024C496.65918,249.96777,496.73145,250.18359,496.73145,250.6875Z" transform="translate(-311.76416 -236.57422)"/></svg>