<svg id="レイヤー_1" data-name="レイヤー 1" xmlns="http://www.w3.org/2000/svg" viewBox="0 0 143.32 95.98"><defs><style>.cls-1{fill:none;}.cls-1,.cls-2{stroke:#7d9aaa;stroke-miterlimit:10;stroke-width:0.5px;}.cls-2{fill:#7d9aaa;}</style></defs><path class="cls-1" d="M141.37,313.93a67.91,67.91,0,0,0,7.29,2.78V326a67.68,67.68,0,0,0,7.56,1.94v-9.27q3.66.71,7.3,1.05v24.79q-3.65-.35-7.3-1.05V333.3a67.61,67.61,0,0,1-7.56-1.93V341.5a67.91,67.91,0,0,1-7.29-2.78Z" transform="translate(-141.12 -307.46)"/><path class="cls-1" d="M187.33,338a55,55,0,0,0,.22,5.56q-3.23.47-6.47.77a7,7,0,0,1-.29-1.71c-.9,1.25-2.29,2.42-5.33,2.56-4.23.17-6.52-2.62-6.52-6,0-4.46,3.56-6.18,9.32-6.57l2.32-.18v-1.05c0-1.21-.43-2-2.12-1.92a2,2,0,0,0-2.17,2.08q-3.24.17-6.48.11c.25-3.19,2.12-6.07,8.83-6.48,6.18-.47,8.69,1.43,8.69,6Zm-6.75-2-1.55.12c-2.42.18-3.22,1-3.22,2.44a1.76,1.76,0,0,0,2.06,1.89c2.37-.17,2.71-1.85,2.71-3.87Z" transform="translate(-141.12 -307.46)"/><path class="cls-1" d="M193.2,328.72c0-1.63,0-3.39,0-4.88q3.43-.6,6.85-1.31a17.53,17.53,0,0,1,.22,2,8,8,0,0,1,5.36-3.68c3.78-.83,6.17,1.17,6.17,5.79v12.16c-2.34.53-4.67,1.05-7,1.56V329.05c0-1.82-.52-2.72-2.14-2.38-1.46.31-2.38,1.27-2.38,3.92v10.76c-2.34.48-4.68.94-7,1.35Z" transform="translate(-141.12 -307.46)"/><path class="cls-1" d="M236.4,307.75v20.38c0,1.89,0,4.07,0,5.7q-3.39.51-6.79,1.16c-.1-.53-.2-1.3-.24-1.76a7.15,7.15,0,0,1-5.13,3.29c-5,1-7.62-2.58-7.62-8.11,0-5.74,3.09-10.73,8.39-11.84,2.22-.46,3.82-.07,4.34.71V309C231.72,308.52,234.06,308.11,236.4,307.75Zm-12.57,18.92c0,3.3,1,4.8,2.94,4.4,2.65-.52,2.89-3,2.89-5.55,0-3.16-.29-4.93-2.81-4.43C224.88,321.48,223.83,323.31,223.83,326.67Z" transform="translate(-141.12 -307.46)"/><path class="cls-1" d="M247.57,326.76c.3,1.18,1.3,1.78,2.83,1.72s2-.48,2-1.35-.83-1.27-3.32-1.71c-6.5-1.05-7.43-2.93-7.43-5.63s1.91-6.33,8.36-6.67c6.16-.21,8.37,3.21,8.56,5.84q-3.15-.15-6.29-.09c-.15-.66-.56-1.63-2.45-1.55-1.26.06-1.72.62-1.72,1.26s.62,1,3.68,1.58c6,1.26,7.32,3.61,7.32,6.53,0,3.4-2.46,6-8.92,6.21-6.15.3-8.73-2.21-9.12-5.53C243.23,327.11,245.4,326.9,247.57,326.76Z" transform="translate(-141.12 -307.46)"/><path class="cls-1" d="M282.74,327.87a67.78,67.78,0,0,0-11.3-3.65v4.64a68.24,68.24,0,0,1,12.61,4.23l-.81,5A68.93,68.93,0,0,0,264.45,333V308.21a69,69,0,0,1,18.76,5.11v5.38a68,68,0,0,0-11.77-3.86v4a68.77,68.77,0,0,1,11.3,3.66Z" transform="translate(-141.12 -307.46)"/><path class="cls-2" d="M141.48,342.84a67.91,67.91,0,0,0,7.29,2.78v9.28a67.61,67.61,0,0,0,7.56,1.93v-9.27a73.74,73.74,0,0,0,7.3,1.05V373.4a73.74,73.74,0,0,1-7.3-1V362.22a69.93,69.93,0,0,1-7.56-1.94v10.13a67.91,67.91,0,0,1-7.29-2.78Z" transform="translate(-141.12 -307.46)"/><path class="cls-2" d="M187.44,367a55.38,55.38,0,0,0,.22,5.57q-3.22.47-6.47.77a7.11,7.11,0,0,1-.29-1.72c-.9,1.25-2.29,2.42-5.33,2.56-4.23.17-6.52-2.62-6.52-6,0-4.45,3.56-6.17,9.32-6.56.63-.05,1.72-.13,2.32-.19v-1c0-1.21-.43-2.05-2.12-1.93a2,2,0,0,0-2.17,2.08q-3.24.17-6.48.11c.25-3.19,2.12-6.07,8.83-6.47,6.18-.47,8.69,1.43,8.69,6Zm-6.75-2-1.55.13c-2.42.18-3.22,1-3.22,2.43a1.76,1.76,0,0,0,2.06,1.89c2.37-.16,2.71-1.85,2.71-3.87Z" transform="translate(-141.12 -307.46)"/><path class="cls-2" d="M193.31,357.64c0-1.64,0-3.4-.05-4.89q3.44-.6,6.85-1.31a17.47,17.47,0,0,1,.22,2,8,8,0,0,1,5.36-3.68c3.78-.84,6.17,1.16,6.17,5.79v12.15c-2.34.53-4.67,1.06-7,1.57V358c0-1.81-.52-2.72-2.14-2.38-1.46.32-2.38,1.28-2.38,3.93v10.76q-3.51.72-7,1.34Z" transform="translate(-141.12 -307.46)"/><path class="cls-2" d="M236.51,336.67V357c0,1.89,0,4.08,0,5.7-2.26.34-4.52.74-6.79,1.16-.1-.53-.2-1.3-.24-1.75a7.11,7.11,0,0,1-5.13,3.28c-4.95,1-7.62-2.58-7.62-8.11,0-5.74,3.09-10.73,8.39-11.83,2.22-.46,3.82-.08,4.34.7v-8.31C231.83,337.43,234.17,337,236.51,336.67Zm-12.57,18.91c0,3.31,1,4.8,2.94,4.41,2.65-.53,2.89-3,2.89-5.55,0-3.16-.29-4.94-2.81-4.44C225,350.4,223.94,352.22,223.94,355.58Z" transform="translate(-141.12 -307.46)"/><path class="cls-2" d="M247.68,355.67c.3,1.19,1.3,1.78,2.83,1.72s2-.48,2-1.35-.83-1.26-3.32-1.7c-6.5-1-7.43-2.93-7.43-5.64s1.91-6.33,8.36-6.66c6.16-.22,8.37,3.21,8.56,5.84q-3.15-.17-6.29-.1c-.15-.66-.56-1.62-2.45-1.54-1.26.05-1.72.61-1.72,1.25s.62,1,3.68,1.59c6,1.26,7.32,3.6,7.32,6.52,0,3.4-2.46,6-8.92,6.21-6.15.3-8.73-2.2-9.12-5.53C243.34,356,245.51,355.81,247.68,355.67Z" transform="translate(-141.12 -307.46)"/><path class="cls-2" d="M282.85,356.79a67.83,67.83,0,0,0-11.3-3.66v4.65A68.24,68.24,0,0,1,284.16,362l-.81,5a69.26,69.26,0,0,0-18.79-5.11V337.13a68.94,68.94,0,0,1,18.76,5.1v5.39a68,68,0,0,0-11.77-3.87v4a67.78,67.78,0,0,1,11.3,3.65Z" transform="translate(-141.12 -307.46)"/><path class="cls-1" d="M141.48,371.9a67.91,67.91,0,0,0,7.29,2.78V384a67.68,67.68,0,0,0,7.56,1.94v-9.27q3.66.7,7.3,1.05v24.79q-3.65-.34-7.3-1V391.27a67.61,67.61,0,0,1-7.56-1.93v10.13a67.91,67.91,0,0,1-7.29-2.78Z" transform="translate(-141.12 -307.46)"/><path class="cls-1" d="M187.44,396a55,55,0,0,0,.22,5.56q-3.22.46-6.47.77a7,7,0,0,1-.29-1.71c-.9,1.25-2.29,2.42-5.33,2.56-4.23.17-6.52-2.62-6.52-6,0-4.46,3.56-6.18,9.32-6.57l2.32-.18v-1.05c0-1.21-.43-2-2.12-1.92a2,2,0,0,0-2.17,2.08q-3.24.17-6.48.11c.25-3.19,2.12-6.07,8.83-6.48,6.18-.47,8.69,1.43,8.69,6Zm-6.75-2-1.55.12c-2.42.18-3.22,1-3.22,2.44a1.76,1.76,0,0,0,2.06,1.89c2.37-.17,2.71-1.85,2.71-3.87Z" transform="translate(-141.12 -307.46)"/><path class="cls-1" d="M193.31,386.69c0-1.63,0-3.39-.05-4.88q3.44-.6,6.85-1.31a17.53,17.53,0,0,1,.22,2,8,8,0,0,1,5.36-3.68c3.78-.83,6.17,1.17,6.17,5.79V396.8c-2.34.53-4.67,1.05-7,1.56V387c0-1.82-.52-2.72-2.14-2.38-1.46.31-2.38,1.27-2.38,3.92v10.76c-2.34.48-4.68.94-7,1.35Z" transform="translate(-141.12 -307.46)"/><path class="cls-1" d="M236.51,365.72v20.37c0,1.9,0,4.08,0,5.7q-3.39.52-6.79,1.17c-.1-.53-.2-1.3-.24-1.76a7.15,7.15,0,0,1-5.13,3.29c-4.95,1-7.62-2.58-7.62-8.11,0-5.74,3.09-10.73,8.39-11.84,2.22-.46,3.82-.07,4.34.71v-8.32C231.83,366.49,234.17,366.08,236.51,365.72Zm-12.57,18.92c0,3.3,1,4.8,2.94,4.4,2.65-.52,2.89-3,2.89-5.55,0-3.16-.29-4.93-2.81-4.43C225,379.45,223.94,381.28,223.94,384.64Z" transform="translate(-141.12 -307.46)"/><path class="cls-1" d="M247.68,384.73c.3,1.18,1.3,1.78,2.83,1.72s2-.48,2-1.35-.83-1.27-3.32-1.71c-6.5-1.05-7.43-2.93-7.43-5.63s1.91-6.33,8.36-6.67c6.16-.21,8.37,3.21,8.56,5.84q-3.15-.15-6.29-.09c-.15-.66-.56-1.63-2.45-1.55-1.26.06-1.72.62-1.72,1.26s.62,1,3.68,1.58c6,1.26,7.32,3.61,7.32,6.53,0,3.4-2.46,6-8.92,6.21-6.15.3-8.73-2.21-9.12-5.53C243.34,385.08,245.51,384.87,247.68,384.73Z" transform="translate(-141.12 -307.46)"/><path class="cls-1" d="M282.85,385.84a67.78,67.78,0,0,0-11.3-3.65v4.64a68.24,68.24,0,0,1,12.61,4.23l-.81,5A68.93,68.93,0,0,0,264.56,391V366.18a69,69,0,0,1,18.76,5.11v5.38a68,68,0,0,0-11.77-3.86v4a68.77,68.77,0,0,1,11.3,3.66Z" transform="translate(-141.12 -307.46)"/></svg>