<svg id="レイヤー_1" data-name="レイヤー 1" xmlns="http://www.w3.org/2000/svg" viewBox="0 0 274.75146 53.57275"><defs><style>.cls-1{fill:#dfb23c;}</style></defs><path class="cls-1" d="M314.42822,290.65088c-1.94384,0-2.66406-.21582-2.66406-1.08008,0-1.65576,1.15234-.792,2.52-1.728,1.44043-1.00781,2.16016-2.44824,2.66455-4.60839,1.00781-4.248,4.248-33.33887,4.248-34.707,0-2.95214-.71973-4.82422-3.09619-5.61621-1.584-.50439-3.24024-.07226-3.24024-1.58447,0-.792.57617-1.15186,2.08838-1.15186,1.80029,0,5.11231.28809,7.4165.28809,3.0962,0,6.48047-.50439,10.29688-.50439,6.9126,0,12.457,1.08056,15.98535,4.10449a12.75585,12.75585,0,0,1,4.32031,10.15283c0,8.28076-6.76855,14.0415-16.05713,14.0415-4.8247,0-8.13671-.50439-8.13671-2.16015,0-.86426.64795-1.15235,1.29589-1.15235,1.15235,0,2.52051.35987,3.88868.35987a9.99369,9.99369,0,0,0,10.22461-9.79248c0-7.12891-5.47266-12.5293-11.01709-12.5293-3.24024,0-4.17627,1.29639-4.82422,4.24854-.50391,1.80029-1.51221,9.793-2.44825,17.71337-.86425,7.41651-1.584,15.40918-1.584,17.85743,0,3.52832,1.15186,4.46435,3.38428,5.11279,1.584.43164,3.02392.21582,3.02392,1.728a1.24041,1.24041,0,0,1-1.36767,1.08007c-2.16065,0-5.1128-.35986-8.56885-.35986C319.10889,290.36328,315.43652,290.65088,314.42822,290.65088Z" transform="translate(-311.76416 -237.87061)"/><path class="cls-1" d="M365.69238,283.45068a111.91721,111.91721,0,0,0,1.79981-12.31347c0-3.81592-1.15186-6.48047-2.95215-6.48047-2.59229,0-2.08789,4.39258-3.45606,4.39258-.36035,0-.72021-.21631-.72021-1.15235,0-3.45605,4.46435-9.57666,8.4248-9.57666,1.65625,0,2.95215,3.38428,3.45606,7.48877.07226.86377.21631,1.51221.64844,1.51221.28808,0,.5039-.64844,1.00781-1.51221,2.52051-4.53662,5.90478-7.34472,9.07275-7.34472,1.08008,0,3.24024.5039,3.24024,1.94433a20.67465,20.67465,0,0,1-.792,2.87988c-.43213,1.8003-.50391,3.74463-1.51221,3.74463-1.15186,0-2.01612-4.03271-4.6084-4.03271-1.584,0-3.09619,2.3042-4.17627,7.63281-1.43994,6.76856-2.59229,15.91358-3.02441,18.86572a1.2219,1.2219,0,0,1-1.08008,1.08008h-4.896c-.936,0-1.22412-.28808-1.22412-1.08008A33.0531,33.0531,0,0,1,365.69238,283.45068Z" transform="translate(-311.76416 -237.87061)"/><path class="cls-1" d="M419.5498,272.14551c0,10.873-7.12841,19.00976-16.77734,19.00976a12.8512,12.8512,0,0,1-12.60107-13.0332c0-9.43262,6.62451-19.29785,16.6333-19.29785C415.30176,258.82422,419.5498,264.585,419.5498,272.14551Zm-16.27343,17.06543c5.18457,0,8.71289-7.77686,8.71289-19.44141,0-3.74463-1.15186-8.9292-5.25635-8.9292-7.27246,0-8.353,13.75342-8.353,19.00977C398.37988,285.17871,399.46045,289.21094,403.27637,289.21094Z" transform="translate(-311.76416 -237.87061)"/><path class="cls-1" d="M443.74023,259.76025a6.2841,6.2841,0,0,1,3.74415.86426,1.51945,1.51945,0,0,0,.792.35987c.21631,0,.36035-.28809.43213-.71973,1.08007-7.34473,2.16015-14.90527,2.16015-17.1377,0-1.80029-.57617-1.87207-4.53613-1.87207a.98427.98427,0,0,1-1.08008-.86426c0-.792.86377-1.29589,1.584-1.29589,2.95214-.07227,6.04834-.21631,6.98437-.36035,1.15234-.14356,3.09619-.86377,4.03272-.86377.64794,0,1.00781.35986,1.00781.86377,0,1.36816-.936,5.18457-1.08008,6.55273-.936,6.84082-4.46436,32.979-4.46436,36.21924,0,2.59228.792,4.75244,2.16016,4.75244,2.23242,0,3.24024-4.24854,4.46436-4.24854a.73286.73286,0,0,1,.64795.792c0,2.23242-5.25635,8.64111-9.79248,8.64111-3.3125,0-4.1045-4.53662-4.46436-6.40869-.07227-.50391-.144-.86426-.43213-.86426s-.57617.36035-.86426.86426c-2.16015,3.52832-6.98437,6.26465-10.80078,6.26465-6.1206,0-8.56885-5.1128-8.56885-11.30518C425.6665,271.28125,434.95557,259.76025,443.74023,259.76025ZM438.55566,286.835c3.52832,0,5.83252-2.37646,7.56055-7.417a85.43136,85.43136,0,0,0,2.23242-13.96924,3.60753,3.60753,0,0,0-3.74463-3.81592c-6.1206,0-11.08886,7.99268-11.08886,17.85742C433.51514,283.52246,435.24316,286.835,438.55566,286.835Z" transform="translate(-311.76416 -237.87061)"/><path class="cls-1" d="M488.23682,278.12207c0-.43213,0-.86426-.35987-.86426s-.72021.57617-.936,1.0083c-3.16846,5.97657-8.92871,12.88916-13.46533,12.88916-3.24024,0-4.39209-2.44824-4.39209-5.47265,0-5.11231,2.52-12.313,2.52-18.07373,0-1.51172-.50391-2.44776-1.65625-2.44776-2.376,0-3.24024,5.04-4.248,5.04a.8173.8173,0,0,1-.79248-.86377c0-3.67236,5.04053-10.15283,10.729-10.15283,1.65625,0,3.60059,2.52,3.60059,6.4082,0,5.6167-2.44824,12.457-2.44824,17.64161,0,1.15234.35986,2.08837,1.7998,2.08837,1.94434,0,8.06494-7.27295,11.37695-18.07373.36036-1.22412,1.65625-5.83252,1.87256-6.69629.21582-.64843.35987-1.15234,1.36817-1.15234h4.104c.936,0,1.29639.21582,1.29639,1.0083,0,1.15186-.792,3.6001-1.08008,5.47217-.792,4.96875-2.80859,13.96924-2.80859,17.49756,0,1.0083.28808,2.23242,1.58447,2.23242,2.95215,0,3.38428-4.24854,4.46435-4.24854a.73539.73539,0,0,1,.72022.792c0,4.24853-6.40869,9.145-10.65723,9.145-2.73633,0-3.38428-2.52051-3.38428-5.97657C487.44482,283.01855,488.23682,279.77832,488.23682,278.12207Z" transform="translate(-311.76416 -237.87061)"/><path class="cls-1" d="M533.88477,264.00879c0,1.87207-1.72852,4.10449-3.67237,4.10449-3.24072,0-3.52832-7.27295-7.63281-7.27295-4.32031,0-7.77686,6.55274-7.77686,14.54541,0,4.82422,2.16016,11.95313,7.99268,11.95313a9.55561,9.55561,0,0,0,6.62451-2.66407c1.22412-1.08007,1.51221-1.65625,2.16016-1.65625a.83172.83172,0,0,1,.86426.86377,4.86061,4.86061,0,0,1-1.65625,2.37647c-3.38428,3.168-6.62452,5.1123-12.16895,5.1123-7.4165,0-11.377-5.18457-11.377-11.665,0-11.44873,7.48877-20.73779,16.6333-20.73779C530.28418,258.96826,533.88477,260.98438,533.88477,264.00879Z" transform="translate(-311.76416 -237.87061)"/><path class="cls-1" d="M551.811,250.6875c0,1.0083-1.36817,5.04053-1.36817,7.77686,0,.792.21582,1.08007,1.87207,1.08007,2.01611,0,3.45606-.144,4.10449-.144,1.22412,0,1.65577,0,1.65577.57617a3.46561,3.46561,0,0,1-.50391,1.728,1.381,1.381,0,0,1-1.2959.64795c-1.87207,0-4.17676-.144-5.32861-.144-.72022,0-1.2959.43212-1.43994,1.44043-.57618,3.60009-2.23243,14.47314-2.23243,17.20947,0,1.728.86426,3.45605,2.88038,3.45605,3.8164,0,4.96826-4.248,6.04833-4.248a.72113.72113,0,0,1,.72022.71972c0,2.73633-5.83252,10.36914-11.30518,10.36914-2.95214,0-5.32812-3.45654-5.32812-7.77685a105.50634,105.50634,0,0,1,1.7998-15.3374c.28809-1.728.72022-3.74414.72022-4.6084,0-.936-.86426-1.00782-2.23194-1.08008-1.65624-.07178-2.0166-.50391-2.0166-1.22412a1.11728,1.11728,0,0,1,.64844-1.08008c3.96-2.08789,6.84033-3.88818,9.36084-6.84033,1.51172-1.8003,2.16016-3.24024,2.87988-3.24024C551.73877,249.96777,551.811,250.18359,551.811,250.6875Z" transform="translate(-311.76416 -237.87061)"/><path class="cls-1" d="M586.51562,263.36084a2.77975,2.77975,0,0,1-2.44824,3.02393c-2.08838,0-2.80859-1.51172-3.38427-3.168-.57618-1.584-1.44043-2.88037-3.74463-2.88037a3.97721,3.97721,0,0,0-4.24805,3.74462c0,2.44776,3.312,4.46436,6.55225,7.12842,3.02441,2.44824,5.90478,5.40039,5.90478,9.57666,0,6.19287-5.6167,10.36914-12.24121,10.36914-5.18457,0-9.43262-2.59228-9.43262-5.83252,0-1.80029,1.00782-3.24023,2.73633-3.24023,2.5918,0,3.02393,2.01611,3.45606,3.96.43212,1.80029,1.22412,3.52832,4.10449,3.52832,3.02392,0,5.83252-1.36768,5.83252-4.75244,0-3.09619-3.3125-5.32813-6.48047-7.99268-2.88037-2.376-5.6167-5.04-5.6167-9.07275a8.54222,8.54222,0,0,1,3.6001-6.9126c2.16015-1.51172,4.96875-2.08789,8.4248-2.08789C583.41943,258.75244,586.51562,260.84033,586.51562,263.36084Z" transform="translate(-311.76416 -237.87061)"/></svg>