<svg id="レイヤー_2" data-name="レイヤー 2" xmlns="http://www.w3.org/2000/svg" xmlns:xlink="http://www.w3.org/1999/xlink" viewBox="0 0 650.82666 454.19034"><defs><style>.cls-1,.cls-6{fill:none;}.cls-2{clip-path:url(#clip-path);}.cls-3{font-size:11.22314px;font-family:HiraKakuProN-W6-83pv-RKSJ-H, Hiragino Kaku Gothic ProN;}.cls-3,.cls-4{fill:#dfb23c;}.cls-4{font-size:119.99725px;font-family:LTCGoudyOldstylePro, LTC Goudy Oldstyle Pro;letter-spacing:0.025em;}.cls-5{font-size:36px;fill:#333;font-family:LTCGoudyOldstylePro-Italic, LTC Goudy Oldstyle Pro;font-style:italic;}.cls-6{stroke:#dfb23c;stroke-miterlimit:10;}</style><clipPath id="clip-path" transform="translate(-365.46826 -154.80371)"><ellipse class="cls-1" cx="683.34211" cy="410.90622" rx="275.98362" ry="145.93682" transform="matrix(0.86603, -0.5, 0.5, 0.86603, -113.90263, 396.72205)"/></clipPath></defs><g class="cls-2"><image width="2425" height="1917" transform="translate(-365.46826 -154.80371) scale(0.24)" xlink:href="../../sewing.png"/></g><text class="cls-3" transform="translate(54.04425 394.32324) rotate(-168.45726)">M</text><text class="cls-3" transform="translate(41.51837 391.41504) rotate(-154.38174)">A</text><text class="cls-3" transform="matrix(-0.7851, -0.61937, 0.61937, -0.7851, 31.79523, 386.50684)">K</text><text class="cls-3" transform="translate(23.62433 379.74707) rotate(-129.91746)">E</text><text class="cls-3" transform="translate(17.61505 372.34961) rotate(-118.12139)">R</text><text class="cls-3" transform="translate(12.95441 362.84766) rotate(-108.47398)"> </text><text class="cls-3" transform="translate(11.16877 357.45117) rotate(-99.65577)">F</text><text class="cls-3" transform="matrix(0.03561, -0.99937, 0.99937, 0.03561, 9.74347, 348.46875)">A</text><text class="cls-3" transform="translate(10.52961 337.5332) rotate(-78.43533)">I</text><text class="cls-3" transform="translate(11.5174 332.39453) rotate(-69.02995)">R</text><text class="cls-3" transform="translate(15.5091 322.66211) rotate(-57.16242)">E</text><text class="cls-3" transform="translate(20.98322 314.74902) rotate(-48.16034)"> </text><text class="cls-3" transform="translate(24.75666 310.51172) rotate(-39.041)">T</text><text class="cls-3" transform="translate(32.45148 304.42871) rotate(-26.64238)">O</text><text class="cls-3" transform="translate(42.58283 299.61523) rotate(-13.71477)">K</text><text class="cls-3" transform="matrix(0.9997, -0.02456, 0.02456, 0.9997, 52.909, 297.31543)">Y</text><text class="cls-3" transform="translate(63.23957 297.20801) rotate(11.20743)">O</text><text class="cls-3" transform="matrix(0.93168, 0.36327, -0.36327, 0.93168, 74.24445, 299.81445)"> </text><text class="cls-3" transform="matrix(0.86139, 0.50794, -0.50794, 0.86139, 79.53205, 301.85938)">2</text><text class="cls-3" transform="matrix(0.74202, 0.67038, -0.67038, 0.74202, 87.91193, 307.01953)">0</text><text class="cls-3" transform="matrix(0.59287, 0.8053, -0.8053, 0.59287, 95.08722, 313.75293)">2</text><text class="cls-3" transform="translate(100.78107 321.80566) rotate(65.27779)">1</text><text class="cls-4" transform="translate(98.81989 101.99658)">HandsE</text><text class="cls-5" transform="translate(348.64697 420.25781)">2021.10.3sat - 10.4sun</text><line class="cls-6" x1="579.85873" y1="193.20348" x2="580.08342" y2="120.41366"/><line class="cls-6" x1="605.66586" y1="182.49727" x2="554.35456" y2="130.86822"/><line class="cls-6" x1="616.40512" y1="156.79509" x2="543.61531" y2="156.5704"/><line class="cls-6" x1="605.82473" y1="131.0271" x2="554.19569" y2="182.33839"/><line class="cls-6" x1="595.10913" y1="189.62395" x2="564.55046" y2="123.55902"/><line class="cls-6" x1="564.34683" y1="189.52899" x2="595.31276" y2="123.65398"/><line class="cls-6" x1="545.59135" y1="168.93371" x2="614.06824" y2="144.24926"/><line class="cls-6" x1="613.9914" y1="169.14484" x2="545.6682" y2="144.03813"/><path class="cls-6" d="M780,507.5c4.85492,0,4.85492,4,9.70983,4,4.855,0,4.855-4,9.71-4,4.85626,0,4.85626,4,9.71251,4,4.85795,0,4.85795-4,9.71589-4,4.8564,0,4.8564,4,9.71281,4,4.85974,0,4.85974-4,9.71948-4s4.85974,4,9.71948,4" transform="translate(-365.46826 -154.80371)"/><path class="cls-6" d="M780,513.5c4.85492,0,4.85492,4,9.70983,4,4.855,0,4.855-4,9.71-4,4.85626,0,4.85626,4,9.71251,4,4.85795,0,4.85795-4,9.71589-4,4.8564,0,4.8564,4,9.71281,4,4.85974,0,4.85974-4,9.71948-4s4.85974,4,9.71948,4" transform="translate(-365.46826 -154.80371)"/><path class="cls-6" d="M780,519.5c4.85492,0,4.85492,4,9.70983,4,4.855,0,4.855-4,9.71-4,4.85626,0,4.85626,4,9.71251,4,4.85795,0,4.85795-4,9.71589-4,4.8564,0,4.8564,4,9.71281,4,4.85974,0,4.85974-4,9.71948-4s4.85974,4,9.71948,4" transform="translate(-365.46826 -154.80371)"/></svg>